<?xml version="1.0" encoding="utf-8"?>
<!-- Generator: Adobe Illustrator 27.0.0, SVG Export Plug-In . SVG Version: 6.00 Build 0)  -->
<svg version="1.1" id="Layer_1" xmlns="http://www.w3.org/2000/svg" xmlns:xlink="http://www.w3.org/1999/xlink" x="0px" y="0px"
	 viewBox="0 0 217 94" style="enable-background:new 0 0 217 94;" xml:space="preserve">
<style type="text/css">
	.st0{fill:#5A5D6E;}
	.st1{fill:#DE6565;}
</style>
<path class="st0" d="M28.3,31.6h-6.6v-4.8h19.1v4.8h-6.5v16.5h-6L28.3,31.6L28.3,31.6z"/>
<path class="st0" d="M56,48.6c-3.2,0-5.6-0.9-7.4-2.6c-1.8-1.7-2.6-4.2-2.6-7.3V26.8h6v11.6c0,3.4,1.3,5.1,4.1,5.1s4-1.7,4-5.1V26.8
	H66v11.8c0,3.2-0.9,5.6-2.6,7.3C61.6,47.7,59.2,48.6,56,48.6z"/>
<path class="st0" d="M89.6,37c1.2,0.4,2.2,1.1,2.9,2s1,2,1,3.3c0,1.9-0.8,3.3-2.3,4.3c-1.5,1-3.7,1.5-6.5,1.5H73.2V26.8h10.9
	c2.7,0,4.8,0.5,6.2,1.5s2.1,2.4,2.1,4.1c0,1-0.2,1.9-0.8,2.7C91.2,36,90.5,36.6,89.6,37L89.6,37z M79.1,31.2v4.1h4.1
	c2,0,3.1-0.7,3.1-2.1s-1-2-3.1-2C83.3,31.2,79.1,31.2,79.1,31.2z M84.2,43.8c2.1,0,3.2-0.7,3.2-2.2s-1.1-2.2-3.2-2.2h-5.1v4.3H84.2z
	"/>
<path class="st0" d="M116.8,43.5v4.7H99.6V26.8h16.7v4.6h-10.8v3.6h9.5v4.5h-9.5v3.9C105.6,43.5,116.8,43.5,116.8,43.5z"/>
<path class="st0" d="M135.1,26.8h6v21.3h-6V26.8z"/>
<path class="st0" d="M153,31.6h-6.6v-4.8h19.1v4.8H159v16.5h-6L153,31.6L153,31.6z"/>
<path class="st1" d="M26.3,57.7h1.1v4.8h3v0.9h-4.1L26.3,57.7L26.3,57.7z"/>
<path class="st1" d="M40.5,63.5c-0.6,0-1.1-0.1-1.6-0.4c-0.5-0.3-0.8-0.6-1.1-1.1s-0.4-1-0.4-1.5s0.1-1.1,0.4-1.5
	c0.3-0.5,0.6-0.8,1.1-1.1c0.5-0.3,1-0.4,1.6-0.4s1.1,0.1,1.6,0.4c0.5,0.2,0.8,0.6,1.1,1s0.4,1,0.4,1.5s-0.1,1.1-0.4,1.5
	c-0.3,0.4-0.6,0.8-1.1,1S41,63.5,40.5,63.5z M40.5,62.6c0.4,0,0.7-0.1,1-0.2c0.3-0.2,0.5-0.4,0.7-0.7s0.3-0.7,0.3-1s-0.1-0.7-0.3-1
	c-0.2-0.3-0.4-0.5-0.7-0.7c-0.3-0.2-0.7-0.3-1-0.3s-0.7,0.1-1,0.3c-0.3,0.2-0.5,0.4-0.7,0.7c-0.2,0.3-0.2,0.7-0.2,1s0.1,0.7,0.2,1
	c0.2,0.3,0.4,0.5,0.7,0.7C39.7,62.5,40.1,62.6,40.5,62.6z"/>
<path class="st1" d="M56.4,57.7v5.8h-0.9l-3.2-3.9v3.9h-1v-5.8h0.9l3.2,3.9v-3.9H56.4z"/>
<path class="st1" d="M64.5,57.7H67c0.6,0,1.2,0.1,1.6,0.3c0.5,0.2,0.8,0.6,1.1,1c0.3,0.4,0.4,0.9,0.4,1.5s-0.1,1.1-0.4,1.5
	c-0.3,0.4-0.6,0.8-1.1,1c-0.5,0.2-1,0.3-1.6,0.3h-2.5C64.5,63.4,64.5,57.7,64.5,57.7z M67,62.5c0.4,0,0.8-0.1,1.1-0.2
	c0.3-0.2,0.6-0.4,0.7-0.7c0.2-0.3,0.3-0.7,0.3-1s-0.1-0.7-0.3-1c-0.2-0.3-0.4-0.5-0.7-0.7c-0.3-0.2-0.7-0.2-1.1-0.2h-1.4v3.9H67z"/>
<path class="st1" d="M80.6,63.5c-0.6,0-1.1-0.1-1.6-0.4c-0.5-0.3-0.8-0.6-1.1-1.1c-0.3-0.5-0.4-1-0.4-1.5s0.1-1.1,0.4-1.5
	c0.3-0.5,0.6-0.8,1.1-1.1c0.5-0.3,1-0.4,1.6-0.4s1.1,0.1,1.6,0.4c0.5,0.2,0.8,0.6,1.1,1c0.3,0.5,0.4,1,0.4,1.5s-0.1,1.1-0.4,1.5
	c-0.3,0.4-0.6,0.8-1.1,1S81.2,63.5,80.6,63.5z M80.6,62.6c0.4,0,0.7-0.1,1-0.2c0.3-0.2,0.6-0.4,0.7-0.7s0.3-0.7,0.3-1
	s-0.1-0.7-0.3-1c-0.2-0.3-0.4-0.5-0.7-0.7c-0.3-0.2-0.7-0.3-1-0.3s-0.7,0.1-1,0.3c-0.3,0.2-0.5,0.4-0.7,0.7c-0.2,0.3-0.2,0.7-0.2,1
	s0.1,0.7,0.2,1c0.2,0.3,0.4,0.5,0.7,0.7C79.8,62.5,80.2,62.6,80.6,62.6z"/>
<path class="st1" d="M96.5,57.7v5.8h-0.9l-3.2-3.9v3.9h-1.1v-5.8h0.9l3.2,3.9v-3.9H96.5z"/>
</svg>
