<?xml version="1.0" encoding="utf-8"?>
<!-- Generator: Adobe Illustrator 27.0.0, SVG Export Plug-In . SVG Version: 6.00 Build 0)  -->
<svg version="1.1" id="Layer_1" xmlns="http://www.w3.org/2000/svg" xmlns:xlink="http://www.w3.org/1999/xlink" x="0px" y="0px"
	 viewBox="0 0 143.8 36.7" style="enable-background:new 0 0 143.8 36.7;" xml:space="preserve">
<style type="text/css">
	.st0{fill:#5A5D6E;}
	.st1{fill:#DE6565;}
</style>
<path class="st0" d="M6.6,4.8H0V0h19.1v4.8h-6.5v16.5h-6V4.8L6.6,4.8z"/>
<path class="st0" d="M34.3,21.8c-3.2,0-5.6-0.9-7.4-2.6c-1.8-1.7-2.6-4.2-2.6-7.3V0h6v11.6c0,3.4,1.3,5.1,4.1,5.1c2.8,0,4-1.7,4-5.1
	V0h5.9v11.8c0,3.2-0.9,5.6-2.6,7.3C39.9,20.9,37.5,21.8,34.3,21.8z"/>
<path class="st0" d="M67.9,10.2c1.2,0.4,2.2,1.1,2.9,2s1,2,1,3.3c0,1.9-0.8,3.3-2.3,4.3s-3.7,1.5-6.5,1.5H51.5V0h10.9
	c2.7,0,4.8,0.5,6.2,1.5s2.1,2.4,2.1,4.1c0,1-0.2,1.9-0.8,2.7C69.5,9.2,68.8,9.8,67.9,10.2L67.9,10.2z M57.4,4.4v4.1h4.1
	c2,0,3.1-0.7,3.1-2.1s-1-2-3.1-2C61.6,4.4,57.4,4.4,57.4,4.4z M62.5,17c2.1,0,3.2-0.7,3.2-2.2s-1.1-2.2-3.2-2.2h-5.1v4.3h5.1V17z"/>
<path class="st0" d="M95.1,16.7v4.7H77.9V0h16.7v4.6H83.8v3.6h9.5v4.5h-9.5v3.9C83.9,16.7,95.1,16.7,95.1,16.7z"/>
<path class="st0" d="M113.4,0h6v21.3h-6V0z"/>
<path class="st0" d="M131.3,4.8h-6.6V0h19.1v4.8h-6.5v16.5h-6V4.8L131.3,4.8z"/>
<path class="st1" d="M4.6,30.9h1.1v4.8h3v0.9H4.6V30.9L4.6,30.9z"/>
<path class="st1" d="M18.8,36.7c-0.6,0-1.1-0.1-1.6-0.4c-0.5-0.3-0.8-0.6-1.1-1.1s-0.4-1-0.4-1.5s0.1-1.1,0.4-1.5
	c0.3-0.5,0.6-0.8,1.1-1.1s1-0.4,1.6-0.4s1.1,0.1,1.6,0.4c0.5,0.2,0.8,0.6,1.1,1s0.4,1,0.4,1.5s-0.1,1.1-0.4,1.5
	c-0.3,0.4-0.6,0.8-1.1,1S19.3,36.7,18.8,36.7z M18.8,35.8c0.4,0,0.7-0.1,1-0.2c0.3-0.2,0.5-0.4,0.7-0.7s0.3-0.7,0.3-1
	s-0.1-0.7-0.3-1s-0.4-0.5-0.7-0.7s-0.7-0.3-1-0.3s-0.7,0.1-1,0.3s-0.5,0.4-0.7,0.7s-0.2,0.7-0.2,1s0.1,0.7,0.2,1
	c0.2,0.3,0.4,0.5,0.7,0.7C18,35.7,18.4,35.8,18.8,35.8z"/>
<path class="st1" d="M34.7,30.9v5.8h-0.9l-3.2-3.9v3.9h-1v-5.8h0.9l3.2,3.9v-3.9H34.7z"/>
<path class="st1" d="M42.8,30.9h2.5c0.6,0,1.2,0.1,1.6,0.3c0.5,0.2,0.8,0.6,1.1,1c0.3,0.4,0.4,0.9,0.4,1.5s-0.1,1.1-0.4,1.5
	s-0.6,0.8-1.1,1s-1,0.3-1.6,0.3h-2.5C42.8,36.6,42.8,30.9,42.8,30.9z M45.3,35.7c0.4,0,0.8-0.1,1.1-0.2c0.3-0.2,0.6-0.4,0.7-0.7
	c0.2-0.3,0.3-0.7,0.3-1s-0.1-0.7-0.3-1c-0.2-0.3-0.4-0.5-0.7-0.7c-0.3-0.2-0.7-0.2-1.1-0.2h-1.4v3.9L45.3,35.7L45.3,35.7z"/>
<path class="st1" d="M58.9,36.7c-0.6,0-1.1-0.1-1.6-0.4c-0.5-0.3-0.8-0.6-1.1-1.1c-0.3-0.5-0.4-1-0.4-1.5s0.1-1.1,0.4-1.5
	c0.3-0.5,0.6-0.8,1.1-1.1s1-0.4,1.6-0.4s1.1,0.1,1.6,0.4c0.5,0.2,0.8,0.6,1.1,1c0.3,0.5,0.4,1,0.4,1.5s-0.1,1.1-0.4,1.5
	s-0.6,0.8-1.1,1S59.5,36.7,58.9,36.7z M58.9,35.8c0.4,0,0.7-0.1,1-0.2c0.3-0.2,0.6-0.4,0.7-0.7s0.3-0.7,0.3-1s-0.1-0.7-0.3-1
	c-0.2-0.3-0.4-0.5-0.7-0.7c-0.3-0.2-0.7-0.3-1-0.3s-0.7,0.1-1,0.3s-0.5,0.4-0.7,0.7s-0.2,0.7-0.2,1s0.1,0.7,0.2,1
	c0.2,0.3,0.4,0.5,0.7,0.7C58.1,35.7,58.5,35.8,58.9,35.8z"/>
<path class="st1" d="M74.8,30.9v5.8h-0.9l-3.2-3.9v3.9h-1.1v-5.8h0.9l3.2,3.9v-3.9H74.8z"/>
</svg>
