<?xml version="1.0" encoding="UTF-8"?>
<svg id="Layer_1" data-name="Layer 1" xmlns="http://www.w3.org/2000/svg" xmlns:xlink="http://www.w3.org/1999/xlink" viewBox="0 0 500 500">
  <defs>
    <style>
      .cls-1 {
        fill: none;
      }

      .cls-2 {
        clip-path: url(#clippath);
      }

      .cls-3 {
        fill: #de6565;
      }

      .cls-4 {
        fill: #1b232f;
      }
    </style>
    <clipPath id="clippath">
      <rect class="cls-1" x="60" y="179.07" width="90.67" height="141.97"/>
    </clipPath>
  </defs>
  <path class="cls-4" d="M172.93,231.67h-12.31v-8.98h35.92v8.98h-12.27v31.1h-11.33v-31.1Z"/>
  <path class="cls-4" d="M224.98,263.56c-5.95,0-10.57-1.61-13.88-4.85-3.31-3.25-4.96-7.85-4.96-13.81v-22.21h11.33v21.88c0,6.42,2.54,9.63,7.63,9.63s7.56-3.21,7.56-9.63v-21.88h11.17v22.21c0,5.96-1.66,10.56-4.96,13.81-3.31,3.24-7.94,4.85-13.9,4.85Z"/>
  <path class="cls-4" d="M288.03,241.87c2.29,.79,4.08,2.04,5.38,3.75,1.3,1.7,1.96,3.74,1.96,6.15,0,3.52-1.42,6.23-4.25,8.15-2.82,1.91-6.9,2.85-12.23,2.85h-21.67v-40.08h20.52c5.11,0,9,.95,11.67,2.83,2.68,1.89,4.02,4.44,4.02,7.65,0,1.91-.47,3.61-1.42,5.13-.93,1.5-2.26,2.7-3.98,3.58Zm-19.58-11v7.73h7.79c3.82,0,5.73-1.3,5.73-3.9s-1.91-3.83-5.73-3.83h-7.79Zm9.52,23.71c3.96,0,5.94-1.35,5.94-4.06s-1.98-4.06-5.94-4.06h-9.52v8.13h9.52Z"/>
  <path class="cls-4" d="M339.17,254v8.77h-32.19v-40.08h31.46v8.75h-20.23v6.77h17.81v8.48h-17.81v7.31h20.96Z"/>
  <path class="cls-4" d="M373.59,222.69h11.35v40.08h-11.35v-40.08Z"/>
  <path class="cls-4" d="M407.27,231.67h-12.31v-8.98h35.92v8.98h-12.27v31.1h-11.33v-31.1Z"/>
  <g class="cls-2">
    <path class="cls-3" d="M106.26,179.06c-.41-.01-.83-.02-1.26-.02s-.84,0-1.26,.02c-33.18,.85-53.68,36.83-38.26,66.35l11.86,22.7,27.65,52.93,9.73-18.62c-3.98-7.42-7.96-14.84-11.95-22.26-6.08-11.33-12.16-22.67-18.24-33.99-3.09-5.76-6.04-11.62-6.84-18.2-1.94-15.87,11.54-30,27.2-30.06,15.36-.06,27.82,12.42,27.82,27.82s-12.41,27.82-27.71,27.82c-.51,0-1.01-.01-1.51-.04l18.44,35.13,10.72-20.52,11.85-22.7c15.43-29.52-5.07-65.5-38.26-66.35"/>
  </g>
  <path class="cls-3" d="M169.05,280.68h2v9.1h5.67v1.71h-7.67v-10.81Z"/>
  <path class="cls-3" d="M195.72,291.64c-1.1,0-2.09-.23-2.98-.71-.89-.48-1.58-1.15-2.08-2-.5-.84-.75-1.8-.75-2.85s.25-1.98,.75-2.83c.5-.86,1.19-1.53,2.08-2,.89-.48,1.88-.73,2.98-.73s2.1,.24,2.98,.73c.89,.47,1.58,1.14,2.08,1.98,.51,.85,.77,1.8,.77,2.85s-.26,2.03-.77,2.88c-.5,.83-1.2,1.49-2.08,1.98-.88,.47-1.87,.71-2.98,.71Zm0-1.75c.72,0,1.36-.16,1.94-.48,.58-.33,1.04-.79,1.38-1.38s.5-1.23,.5-1.96-.17-1.36-.5-1.94c-.33-.58-.79-1.03-1.38-1.35-.57-.33-1.22-.5-1.94-.5s-1.38,.17-1.96,.5c-.57,.32-1.02,.77-1.35,1.35-.32,.57-.48,1.22-.48,1.94s.16,1.38,.48,1.96c.33,.58,.78,1.04,1.35,1.38,.58,.32,1.23,.48,1.96,.48Z"/>
  <path class="cls-3" d="M225.67,280.68v10.81h-1.65l-5.98-7.33v7.33h-1.98v-10.81h1.65l5.98,7.31v-7.31h1.98Z"/>
  <path class="cls-3" d="M240.95,280.68h4.73c1.15,0,2.17,.22,3.06,.67,.9,.45,1.59,1.08,2.08,1.9,.5,.82,.75,1.77,.75,2.83s-.25,2.02-.75,2.83c-.49,.82-1.18,1.46-2.08,1.92-.89,.45-1.91,.67-3.06,.67h-4.73v-10.81Zm4.63,9.1c.79,0,1.48-.15,2.08-.44,.61-.3,1.07-.73,1.4-1.29,.33-.57,.5-1.23,.5-1.98s-.17-1.38-.5-1.94c-.32-.57-.79-1.01-1.4-1.31-.6-.3-1.29-.46-2.08-.46h-2.63v7.42h2.63Z"/>
  <path class="cls-3" d="M271.13,291.64c-1.1,0-2.09-.23-2.98-.71-.89-.48-1.58-1.15-2.08-2-.5-.84-.75-1.8-.75-2.85s.25-1.98,.75-2.83c.5-.86,1.19-1.53,2.08-2,.89-.48,1.88-.73,2.98-.73s2.1,.24,2.98,.73c.89,.47,1.58,1.14,2.08,1.98,.51,.85,.77,1.8,.77,2.85s-.26,2.03-.77,2.88c-.5,.83-1.2,1.49-2.08,1.98-.88,.47-1.87,.71-2.98,.71Zm0-1.75c.72,0,1.36-.16,1.94-.48,.58-.33,1.04-.79,1.38-1.38s.5-1.23,.5-1.96-.17-1.36-.5-1.94c-.33-.58-.79-1.03-1.38-1.35-.57-.33-1.22-.5-1.94-.5s-1.38,.17-1.96,.5c-.57,.32-1.02,.77-1.35,1.35-.32,.57-.48,1.22-.48,1.94s.16,1.38,.48,1.96c.33,.58,.78,1.04,1.35,1.38,.58,.32,1.23,.48,1.96,.48Z"/>
  <path class="cls-3" d="M301.08,280.68v10.81h-1.65l-5.98-7.33v7.33h-1.98v-10.81h1.65l5.98,7.31v-7.31h1.98Z"/>
</svg>