<?xml version="1.0" encoding="UTF-8"?>
<svg id="Layer_1" data-name="Layer 1" xmlns="http://www.w3.org/2000/svg" viewBox="0 0 217 94">
  <defs>
    <style>
      .cls-1 {
        fill: #de6565;
      }

      .cls-2 {
        fill: #1b232f;
      }
    </style>
  </defs>
  <path class="cls-2" d="M28.33,31.61h-6.55v-4.78h19.1v4.78h-6.53v16.54h-6.03V31.61Z"/>
  <path class="cls-2" d="M56.01,48.58c-3.16,0-5.62-.86-7.38-2.58-1.76-1.73-2.64-4.18-2.64-7.35v-11.81h6.03v11.63c0,3.41,1.35,5.12,4.06,5.12s4.02-1.71,4.02-5.12v-11.63h5.94v11.81c0,3.17-.88,5.62-2.64,7.35-1.76,1.72-4.22,2.58-7.39,2.58Z"/>
  <path class="cls-2" d="M89.55,37.04c1.22,.42,2.17,1.09,2.86,1.99,.69,.9,1.04,1.99,1.04,3.27,0,1.87-.75,3.31-2.26,4.33-1.5,1.01-3.67,1.52-6.5,1.52h-11.52V26.84h10.91c2.72,0,4.79,.5,6.21,1.51,1.42,1.01,2.14,2.36,2.14,4.07,0,1.01-.25,1.92-.75,2.73-.5,.8-1.2,1.43-2.12,1.91Zm-10.42-5.85v4.11h4.14c2.03,0,3.05-.69,3.05-2.07s-1.02-2.04-3.05-2.04h-4.14Zm5.06,12.61c2.11,0,3.16-.72,3.16-2.16s-1.05-2.16-3.16-2.16h-5.06v4.32h5.06Z"/>
  <path class="cls-2" d="M116.75,43.49v4.67h-17.12V26.84h16.73v4.65h-10.76v3.6h9.47v4.51h-9.47v3.89h11.15Z"/>
  <path class="cls-2" d="M135.05,26.84h6.04v21.32h-6.04V26.84Z"/>
  <path class="cls-2" d="M152.97,31.61h-6.55v-4.78h19.1v4.78h-6.53v16.54h-6.03V31.61Z"/>
  <path class="cls-1" d="M26.27,57.68h1.06v4.84h3.01v.91h-4.08v-5.75Z"/>
  <path class="cls-1" d="M40.45,63.51c-.58,0-1.11-.12-1.58-.38-.47-.26-.84-.61-1.11-1.06-.27-.45-.4-.96-.4-1.52s.13-1.06,.4-1.51c.27-.46,.63-.81,1.11-1.06,.47-.26,1-.39,1.58-.39s1.12,.13,1.58,.39c.47,.25,.84,.6,1.11,1.05,.27,.45,.41,.96,.41,1.52s-.14,1.08-.41,1.53c-.27,.44-.64,.8-1.11,1.05-.47,.25-.99,.38-1.58,.38Zm0-.93c.38,0,.73-.08,1.03-.25,.31-.18,.55-.42,.73-.73s.27-.66,.27-1.04-.09-.73-.27-1.03c-.18-.31-.42-.55-.73-.72-.3-.18-.65-.27-1.03-.27s-.73,.09-1.04,.27c-.3,.17-.54,.41-.72,.72-.17,.3-.25,.65-.25,1.03s.08,.73,.25,1.04c.18,.31,.42,.55,.72,.73,.31,.17,.66,.25,1.04,.25Z"/>
  <path class="cls-1" d="M56.38,57.68v5.75h-.88l-3.18-3.9v3.9h-1.05v-5.75h.88l3.18,3.89v-3.89h1.05Z"/>
  <path class="cls-1" d="M64.51,57.68h2.52c.61,0,1.16,.12,1.63,.35,.48,.24,.85,.57,1.11,1.01,.27,.44,.4,.94,.4,1.51s-.13,1.07-.4,1.51c-.26,.44-.63,.78-1.11,1.02-.47,.24-1.02,.35-1.63,.35h-2.52v-5.75Zm2.46,4.84c.42,0,.79-.08,1.11-.23,.32-.16,.57-.39,.74-.69,.18-.3,.27-.65,.27-1.05s-.09-.73-.27-1.03c-.17-.3-.42-.53-.74-.7-.32-.16-.69-.24-1.11-.24h-1.4v3.94h1.4Z"/>
  <path class="cls-1" d="M80.56,63.51c-.58,0-1.11-.12-1.58-.38-.47-.26-.84-.61-1.11-1.06-.27-.45-.4-.96-.4-1.52s.13-1.06,.4-1.51c.27-.46,.63-.81,1.11-1.06,.47-.26,1-.39,1.58-.39s1.12,.13,1.58,.39c.47,.25,.84,.6,1.11,1.05,.27,.45,.41,.96,.41,1.52s-.14,1.08-.41,1.53c-.27,.44-.64,.8-1.11,1.05-.47,.25-.99,.38-1.58,.38Zm0-.93c.38,0,.73-.08,1.03-.25,.31-.18,.55-.42,.73-.73s.27-.66,.27-1.04-.09-.73-.27-1.03c-.18-.31-.42-.55-.73-.72-.3-.18-.65-.27-1.03-.27s-.73,.09-1.04,.27c-.3,.17-.54,.41-.72,.72-.17,.3-.25,.65-.25,1.03s.08,.73,.25,1.04c.18,.31,.42,.55,.72,.73,.31,.17,.66,.25,1.04,.25Z"/>
  <path class="cls-1" d="M96.49,57.68v5.75h-.88l-3.18-3.9v3.9h-1.05v-5.75h.88l3.18,3.89v-3.89h1.05Z"/>
</svg>