<?xml version="1.0" encoding="UTF-8"?>
<svg id="Layer_1" data-name="Layer 1" xmlns="http://www.w3.org/2000/svg" viewBox="0 0 500 500">
  <defs>
    <style>
      .cls-1 {
        fill: #de6565;
      }

      .cls-2 {
        fill: #1b232f;
      }
    </style>
  </defs>
  <path class="cls-2" d="M62.31,222.45h-16.92v-12.35h49.33v12.35h-16.83v42.73h-15.58v-42.73Z"/>
  <path class="cls-2" d="M133.83,266.28c-8.18,0-14.54-2.23-19.08-6.69-4.53-4.46-6.79-10.78-6.79-18.96v-30.54h15.58v30.06c0,8.81,3.48,13.21,10.46,13.21s10.38-4.4,10.38-13.21v-30.06h15.35v30.54c0,8.18-2.27,14.5-6.81,18.96-4.53,4.46-10.89,6.69-19.08,6.69Z"/>
  <path class="cls-2" d="M220.45,236.45c3.15,1.11,5.61,2.83,7.4,5.17,1.79,2.33,2.69,5.16,2.69,8.46,0,4.82-1.95,8.54-5.83,11.17-3.88,2.63-9.49,3.94-16.83,3.94h-29.75v-55.08h28.19c7.03,0,12.38,1.3,16.04,3.9,3.67,2.6,5.5,6.1,5.5,10.5,0,2.63-.65,4.98-1.94,7.06-1.28,2.07-3.1,3.7-5.46,4.9Zm-26.9-15.1v10.63h10.69c5.25,0,7.88-1.78,7.88-5.35s-2.63-5.27-7.88-5.27h-10.69Zm13.06,32.58c5.44,0,8.17-1.86,8.17-5.58s-2.72-5.58-8.17-5.58h-13.06v11.17h13.06Z"/>
  <path class="cls-2" d="M290.72,253.13v12.04h-44.23v-55.08h43.21v12.04h-27.77v9.29h24.46v11.65h-24.46v10.06h28.79Z"/>
  <path class="cls-2" d="M338,210.09h15.58v55.08h-15.58v-55.08Z"/>
  <path class="cls-2" d="M384.27,222.45h-16.92v-12.35h49.33v12.35h-16.83v42.73h-15.58v-42.73Z"/>
  <path class="cls-1" d="M56.98,289.77h2.75v12.54h7.79v2.33h-10.54v-14.88Z"/>
  <path class="cls-1" d="M93.63,304.85c-1.52,0-2.89-.32-4.1-.98-1.21-.67-2.16-1.58-2.85-2.75-.7-1.17-1.04-2.47-1.04-3.92s.34-2.75,1.04-3.92c.69-1.17,1.65-2.07,2.85-2.73,1.22-.67,2.59-1,4.1-1s2.9,.33,4.1,1c1.22,.66,2.18,1.56,2.88,2.73,.69,1.16,1.04,2.46,1.04,3.92s-.35,2.77-1.04,3.94c-.7,1.16-1.66,2.06-2.88,2.73-1.21,.66-2.58,.98-4.1,.98Zm0-2.42c1,0,1.9-.22,2.69-.67,.79-.44,1.41-1.07,1.85-1.88,.46-.8,.69-1.7,.69-2.69s-.23-1.88-.69-2.69c-.45-.8-1.06-1.43-1.85-1.88-.79-.44-1.69-.67-2.69-.67s-1.88,.22-2.67,.67c-.79,.45-1.42,1.07-1.88,1.88-.45,.81-.67,1.7-.67,2.69s.22,1.89,.67,2.69c.46,.81,1.08,1.43,1.88,1.88,.79,.45,1.68,.67,2.67,.67Z"/>
  <path class="cls-1" d="M134.78,289.77v14.88h-2.27l-8.21-10.06v10.06h-2.73v-14.88h2.27l8.21,10.06v-10.06h2.73Z"/>
  <path class="cls-1" d="M155.76,289.77h6.5c1.58,0,2.99,.31,4.23,.94,1.23,.61,2.19,1.48,2.88,2.6,.68,1.13,1.02,2.43,1.02,3.9s-.34,2.77-1.02,3.9c-.68,1.13-1.64,2-2.88,2.63-1.24,.61-2.65,.92-4.23,.92h-6.5v-14.88Zm6.38,12.54c1.08,0,2.04-.21,2.88-.63s1.47-1.01,1.92-1.79c.44-.78,.67-1.67,.67-2.69s-.22-1.91-.67-2.69c-.45-.78-1.08-1.38-1.92-1.79s-1.79-.63-2.88-.63h-3.63v10.21h3.63Z"/>
  <path class="cls-1" d="M197.24,304.85c-1.52,0-2.89-.32-4.1-.98-1.21-.67-2.16-1.58-2.85-2.75-.7-1.17-1.04-2.47-1.04-3.92s.34-2.75,1.04-3.92c.69-1.17,1.65-2.07,2.85-2.73,1.22-.67,2.59-1,4.1-1s2.9,.33,4.1,1c1.22,.66,2.18,1.56,2.88,2.73,.69,1.16,1.04,2.46,1.04,3.92s-.35,2.77-1.04,3.94c-.7,1.16-1.66,2.06-2.88,2.73-1.21,.66-2.58,.98-4.1,.98Zm0-2.42c1,0,1.9-.22,2.69-.67,.79-.44,1.41-1.07,1.85-1.88,.46-.8,.69-1.7,.69-2.69s-.23-1.88-.69-2.69c-.45-.8-1.06-1.43-1.85-1.88-.79-.44-1.69-.67-2.69-.67s-1.88,.22-2.67,.67c-.79,.45-1.42,1.07-1.88,1.88-.45,.81-.67,1.7-.67,2.69s.22,1.89,.67,2.69c.46,.81,1.08,1.43,1.88,1.88,.79,.45,1.68,.67,2.67,.67Z"/>
  <path class="cls-1" d="M238.38,289.77v14.88h-2.27l-8.21-10.06v10.06h-2.73v-14.88h2.27l8.21,10.06v-10.06h2.73Z"/>
</svg>